<svg xmlns="http://www.w3.org/2000/svg" width="50.5" height="33.156" viewBox="0 0 50.5 33.156">
  <defs>
    <style>
      .cls-1 {
        fill: #222;
        fill-rule: evenodd;
      }
    </style>
  </defs>
  <path id="handshakes.svg" class="cls-1" d="M187.533,459.689l-6.018,2.947-2.628,2.421a30.18,30.18,0,0,1-7.172,4.895L159.957,475.7a2.837,2.837,0,0,1-1.278.3,2.918,2.918,0,0,1-2.618-1.628,3.029,3.029,0,0,1-.278-1.02l-0.66.319a2.833,2.833,0,0,1-1.277.3,2.918,2.918,0,0,1-2.618-1.628,2.817,2.817,0,0,1-.3-1.35,2.915,2.915,0,0,1-.927-0.154,2.873,2.873,0,0,1-1.67-1.474,2.9,2.9,0,0,0-.587-4.121,2.93,2.93,0,0,1-.134-2.226,2.871,2.871,0,0,1,1.474-1.669l4.482-2.195a0.933,0.933,0,0,1,.814,1.68l-4.482,2.194a1.039,1.039,0,0,0-.526.6,1.01,1.01,0,0,0,.052.793,1.052,1.052,0,0,0,1.4.485l2.566-1.257,5.874-2.875a0.933,0.933,0,1,1,.814,1.679l-5.42,2.659-0.66.319-2.36,1.154-1.154.567a1.043,1.043,0,0,0,.113,1.927,1.016,1.016,0,0,0,.794-0.052l3.339-1.638,0.268-.134,7-3.431a0.933,0.933,0,1,1,.814,1.679l-6.987,3.421-2.442,1.195a1.039,1.039,0,0,0-.526.6,1.01,1.01,0,0,0,.052.793,1.043,1.043,0,0,0,1.4.485l3.236-1.587,6.431-3.143a0.933,0.933,0,0,1,.814,1.68l-6.431,3.143-0.144.072a1.048,1.048,0,1,0,.917,1.885l11.758-5.749a28.351,28.351,0,0,0,6.73-4.6l2.215-2.04-7.048-14.395a0.931,0.931,0,0,1,.432-1.246l6.142-3a0.944,0.944,0,0,1,.711-0.041,0.927,0.927,0,0,1,.536.474l7.358,14.992A0.932,0.932,0,0,1,187.533,459.689Zm-8.192-14.58-4.462,2.184,6.523,13.344,4.462-2.185Zm2.828,10.2a1.128,1.128,0,1,1-1.127,1.128A1.128,1.128,0,0,1,182.169,455.305Zm-15.576-1.417-4.421-1.515a8.561,8.561,0,0,1-3.668,4.266,7.177,7.177,0,0,1-3.463.845,10.814,10.814,0,0,1-3.483-.639,0.932,0.932,0,1,1,.608-1.762,6.711,6.711,0,0,0,5.462-.093,7.055,7.055,0,0,0,3.081-4.029,0.98,0.98,0,0,1,.464-0.587,0.935,0.935,0,0,1,.742-0.062l5.3,1.814a2.5,2.5,0,0,0,2.246-.01,2.427,2.427,0,0,0,.824-1.4l-11.881-4.09a3.271,3.271,0,0,0-2.494.154l-0.629.309a5.2,5.2,0,0,1-3.968.227l-0.35-.124-5.122,14.9a0.941,0.941,0,0,1-.886.628,1.066,1.066,0,0,1-.3-0.051l-6.461-2.216a0.929,0.929,0,0,1-.577-1.185l5.431-15.816a0.936,0.936,0,0,1,1.185-.577l6.471,2.215a0.808,0.808,0,0,1,.186.093l1.051,0.371a3.285,3.285,0,0,0,2.515-.144l0.628-.309a5.217,5.217,0,0,1,3.916-.248l12.614,4.349a0.932,0.932,0,0,1,.628.906,4.84,4.84,0,0,1-1.731,3.534A4.192,4.192,0,0,1,166.593,453.888ZM144.5,444.944l-4.813,14.044,4.7,1.608,4.813-14.045Zm1.414,2.03a1.128,1.128,0,1,1-1.128,1.128A1.127,1.127,0,0,1,145.913,446.974Z" transform="translate(-137.562 -442.844)"/>
</svg>

