<svg width="48" height="48" viewBox="0 0 48 48" fill="none" xmlns="http://www.w3.org/2000/svg">
<path fill-rule="evenodd" clip-rule="evenodd" d="M16 11C16 10.4477 16.4477 10 17 10H41C41.5523 10 42 10.4477 42 11V12H16V11ZM14 11C14 9.34315 15.3431 8 17 8H41C42.6569 8 44 9.34315 44 11V25C44 26.6569 42.6569 28 41 28H34V37C34 38.6569 32.6569 40 31 40H7C5.34315 40 4 38.6569 4 37V23C4 21.3431 5.34315 20 7 20H14V11ZM16 16V14H42V16H16ZM16 18V20H31C32.6569 20 34 21.3431 34 23V26H41C41.5523 26 42 25.5523 42 25V18H16ZM32 23C32 22.4477 31.5523 22 31 22H7C6.44772 22 6 22.4477 6 23V37C6 37.5523 6.44772 38 7 38H31C31.5523 38 32 37.5523 32 37V23ZM8 35C8 34.4477 8.44772 34 9 34H19C19.5523 34 20 34.4477 20 35C20 35.5523 19.5523 36 19 36H9C8.44772 36 8 35.5523 8 35ZM9 30C8.44772 30 8 30.4477 8 31C8 31.5523 8.44772 32 9 32H14C14.5523 32 15 31.5523 15 31C15 30.4477 14.5523 30 14 30H9ZM23 25.6C23 24.7163 23.7163 24 24.6 24H28.4C29.2837 24 30 24.7163 30 25.6V28.4C30 29.2837 29.2837 30 28.4 30H24.6C23.7163 30 23 29.2837 23 28.4V25.6ZM25 26V28H28V26H25Z" fill="black"/>
</svg>

