<svg xmlns="http://www.w3.org/2000/svg" width="15.75" height="17.406" viewBox="0 0 15.75 17.406">
  <defs>
    <style>
      .cls-1 {
        fill: #222;
        fill-rule: evenodd;
      }
    </style>
  </defs>
  <path id="_0arrows.svg" data-name="0arrows.svg" class="cls-1" d="M74.51,30.332V44.773l-5.942-4.361a0.741,0.741,0,0,0-1.036.16l0,0.006a0.756,0.756,0,0,0,.166,1.05l7.124,5.229a0.764,0.764,0,0,0,.093.047A0.631,0.631,0,0,0,75.24,47c0.006,0,.01,0,0.016,0s0.01,0,.016,0a0.741,0.741,0,0,0,.243-0.049A0.729,0.729,0,0,0,75.6,46.9a0.764,0.764,0,0,0,.093-0.047l7.124-5.229a0.755,0.755,0,0,0,.166-1.05,0.74,0.74,0,0,0-1.034-.17l-0.006,0L76,44.773V30.332a0.746,0.746,0,1,0-1.491-.006v0.006Z" transform="translate(-67.375 -29.594)"/>
</svg>
