<svg xmlns="http://www.w3.org/2000/svg" width="46.969" height="47.156" viewBox="0 0 46.969 47.156">
  <defs>
    <style>
      .cls-1 {
        fill: #222;
        fill-rule: evenodd;
      }
    </style>
  </defs>
  <path id="sale2.svg" class="cls-1" d="M480.384,386.614v-1.592h1.593v1.592h-1.593Zm-0.8-4.774h1.592v1.591h-1.592V381.84Zm-1.805-13.307a7.947,7.947,0,0,0,1.009-4.2,8.754,8.754,0,0,0-5.725-8.234l0.541-1.5a10.347,10.347,0,0,1,6.776,9.73,9.449,9.449,0,0,1-1.223,4.994Zm-2.176-4.2a5.572,5.572,0,0,1-1.3,3.578l-1.22-1.024a3.976,3.976,0,0,0-1.625-6.27l0.57-1.486A5.6,5.6,0,0,1,475.607,364.336Zm-23.918,15.913,2.947,2.409a3.9,3.9,0,0,1,.4-0.023,3.96,3.96,0,0,1,2.816,1.166l2.268,2.4a3.932,3.932,0,0,1,1.15,2.8,3.984,3.984,0,0,1-2.512,3.694,6.19,6.19,0,0,1-2.623,3.2l-1.235.719v1.134h-1.592V395.7l2.025-1.179a4.5,4.5,0,0,0,1.542-1.568,3.931,3.931,0,0,1-1.979-.782c0,0.053,0,.106,0,0.16v0.644h-1.592v-0.644a4.474,4.474,0,0,0-1.683-3.506l-0.252-.2-0.468-3.7a0.792,0.792,0,0,0-1.578.1c0,0.044.008,0.12,0.008,0.124l0.714,5.61a9.282,9.282,0,0,1,.074,1.167,8.89,8.89,0,0,1-.648,3.4A14.04,14.04,0,0,1,448.009,398l-1.307-.911a12.476,12.476,0,0,0,1.306-2.369,7.331,7.331,0,0,0,.528-2.8,7.633,7.633,0,0,0-.062-0.967l-0.716-5.634c0-.025-0.019-0.206-0.019-0.3a2.4,2.4,0,0,1,.019-0.282l-2.654-2.169a4.21,4.21,0,0,1-.731.064A3.931,3.931,0,0,1,440.7,380.1l-2.241-5.746a4.135,4.135,0,0,1-.272-1.5,3.961,3.961,0,0,1,2.536-3.647l5.226-2.14,18.693-16.206,11.619,29.391h-24.57Zm1.19,7.553a6.107,6.107,0,0,1,1.028,1.19l1.7,1.7a2.388,2.388,0,1,0,3.379-3.375l-2.268-2.4a2.366,2.366,0,0,0-1.674-.682,2.417,2.417,0,0,0-2.362,1.991Zm-4.385-4.516a2.373,2.373,0,0,1,3.7.556,4.082,4.082,0,0,1,.689-0.561l-3.078-2.517-2.94,1.19ZM445.922,368.8l-4.611,1.887a2.365,2.365,0,0,0-1.534,2.169,2.548,2.548,0,0,0,.164.927l2.241,5.746a2.349,2.349,0,0,0,2.191,1.52,2.487,2.487,0,0,0,.9-0.163l4.623-1.871Zm18.063-15.263-1.977,1.714,6.218,15.928-1.483.578-6.011-15.4-13.417,11.632,4.154,10.672h17.97l-0.8-2.042,1.483-.578,1.023,2.62h2.769Zm3.447,19.986,1.484-.578,0.524,1.343-1.483.578ZM447.739,353.2h1.593v4.773h-1.593V353.2Zm-11.367,4.882,1.126-1.125,3.265,3.263-1.126,1.126Zm0.22,32.513H435V389h1.592v1.591Zm0-4.774h1.593v1.591h-1.593v-1.591Zm1.593,7.957h-1.593v-1.592h1.593v1.592Zm3.185-7.957h-1.593v-1.591h1.593v1.591Zm0,9.548h-1.593v-1.591h1.593v1.591Zm3.185-7.957h-1.593v-1.591h1.593v1.591Zm0,1.592h1.592v1.591h-1.592V389Zm0,4.774h-1.593v-1.592h1.593v1.592Zm19.109-11.935h1.592v1.591h-1.592V381.84Zm0.8,4.774h-1.593v-1.592h1.593v1.592Zm0.8,3.182h-1.592v-1.591h1.592V389.8Zm1.593,3.183h-1.593v-1.591h1.593v1.591Zm3.184,1.591h-1.592v-1.591h1.592v1.591Zm3.185,0.8h-1.592v-1.591h1.592v1.591Zm3.185-.8h-1.592v-1.591H476.4v1.591Zm3.185-14.321H478v-1.592h1.592v1.592Zm0,7.956h1.592V389.8h-1.592v-1.591Zm0,4.774H478v-1.591h1.592v1.591Z" transform="translate(-435 -350.844)"/>
</svg>

