<svg xmlns="http://www.w3.org/2000/svg" width="17.406" height="15.75" viewBox="0 0 17.406 15.75">
  <defs>
    <style>
      .cls-1 {
        fill: #222;
        fill-rule: evenodd;
      }
    </style>
  </defs>
  <path id="_2arrows.svg" data-name="2arrows.svg" class="cls-1" d="M23.75,39.036H38.192l-4.361,5.942a0.74,0.74,0,0,0,.16,1.036l0.006,0a0.756,0.756,0,0,0,1.05-.166l5.229-7.124a0.77,0.77,0,0,0,.047-0.093,0.709,0.709,0,0,0,.044-0.086,0.733,0.733,0,0,0,.049-0.243c0-.006,0-0.011,0-0.016s0-.01,0-0.016a0.739,0.739,0,0,0-.049-0.244,0.713,0.713,0,0,0-.044-0.086,0.765,0.765,0,0,0-.047-0.093l-5.229-7.124A0.755,0.755,0,0,0,34,30.562a0.741,0.741,0,0,0-.17,1.034l0,0.006,4.361,5.943H23.75a0.746,0.746,0,1,0-.005,1.491H23.75Z" transform="translate(-23 -30.406)"/>
</svg>

